<svg xmlns="http://www.w3.org/2000/svg" version="1.1" xmlns:xlink="http://www.w3.org/1999/xlink" xmlns:svgjs="http://svgjs.com/svgjs" width="798" height="250" preserveAspectRatio="none" viewBox="0 0 798 250"><g mask="url(&quot;#SvgjsMask3267&quot;)" fill="none"><path d="M776.33 103.1a5.6 5.6 0 1 0 5.8-9.58 5.6 5.6 0 1 0-5.8 9.58zM784.61 89.41a5.6 5.6 0 1 0 5.8-9.58 5.6 5.6 0 1 0-5.8 9.58zM792.89 75.72a5.6 5.6 0 1 0 5.79-9.59 5.6 5.6 0 1 0-5.79 9.59zM801.17 62.03a5.6 5.6 0 1 0 5.79-9.59 5.6 5.6 0 1 0-5.79 9.59zM773.47 138.76a5.6 5.6 0 1 0 5.79-9.58 5.6 5.6 0 1 0-5.79 9.58zM781.74 125.07a5.6 5.6 0 1 0 5.8-9.58 5.6 5.6 0 1 0-5.8 9.58zM790.02 111.38a5.6 5.6 0 1 0 5.8-9.58 5.6 5.6 0 1 0-5.8 9.58zM798.3 97.69a5.6 5.6 0 1 0 5.8-9.58 5.6 5.6 0 1 0-5.8 9.58zM770.6 174.43a5.6 5.6 0 1 0 5.79-9.59 5.6 5.6 0 1 0-5.79 9.59zM778.88 160.73a5.6 5.6 0 1 0 5.79-9.58 5.6 5.6 0 1 0-5.79 9.58zM787.16 147.04a5.6 5.6 0 1 0 5.79-9.58 5.6 5.6 0 1 0-5.79 9.58zM795.44 133.35a5.6 5.6 0 1 0 5.79-9.58 5.6 5.6 0 1 0-5.79 9.58z" fill="rgba(115, 169, 203, 0.25)"></path><path d="M144.16 43.7a5.6 5.6 0 1 0 6.71-8.97 5.6 5.6 0 1 0-6.71 8.97zM153.74 30.89a5.6 5.6 0 1 0 6.71-8.97 5.6 5.6 0 1 0-6.71 8.97zM163.33 18.08a5.6 5.6 0 1 0 6.71-8.97 5.6 5.6 0 1 0-6.71 8.97zM172.91 5.26a5.6 5.6 0 1 0 6.71-8.96 5.6 5.6 0 1 0-6.71 8.96zM137.8 78.91a5.6 5.6 0 1 0 6.71-8.97 5.6 5.6 0 1 0-6.71 8.97zM147.39 66.1a5.6 5.6 0 1 0 6.7-8.97 5.6 5.6 0 1 0-6.7 8.97zM156.97 53.28a5.6 5.6 0 1 0 6.71-8.96 5.6 5.6 0 1 0-6.71 8.96zM166.55 40.47a5.6 5.6 0 1 0 6.71-8.97 5.6 5.6 0 1 0-6.71 8.97z" stroke="rgba(185, 185, 185, 0.28)" stroke-width="2.67" stroke-dasharray="3, 3"></path><rect width="120" height="120" clip-path="url(&quot;#SvgjsClipPath3268&quot;)" x="355.81" y="175.26" fill="url(#SvgjsPattern3269)" transform="rotate(127.39, 415.81, 235.26)"></rect><path d="M561.2900000000001 102.58000000000001 L553.14 136.03L535.9438326349447 98.03383263494464z" stroke="rgba(128, 185, 131, 0.34)" stroke-width="2.57" stroke-dasharray="3, 2"></path><rect width="60" height="60" clip-path="url(&quot;#SvgjsClipPath3270&quot;)" x="518.4" y="85.8" fill="url(#SvgjsPattern3271)" transform="rotate(116.03, 548.4, 115.8)"></rect><path d="M250.78 163.34a5.6 5.6 0 1 0-7.88 7.95 5.6 5.6 0 1 0 7.88-7.95zM239.52 174.7a5.6 5.6 0 1 0-7.88 7.96 5.6 5.6 0 1 0 7.88-7.96zM228.26 186.07a5.6 5.6 0 1 0-7.88 7.96 5.6 5.6 0 1 0 7.88-7.96zM217 197.44a5.6 5.6 0 1 0-7.88 7.96 5.6 5.6 0 1 0 7.88-7.96z" fill="rgba(185, 185, 185, 0.28)"></path><path d="M61.69 219.69 L105.78999999999999 244.42L48.07779721787711 267.7172027821229z" fill="rgba(115, 169, 203, 0.25)"></path><path d="M756.04 127.31 L736.3399999999999 121.72999999999999L757.6894630228719 113.02053697712809z" stroke="rgba(185, 185, 185, 0.28)" stroke-width="1.98" stroke-dasharray="3, 3"></path><rect width="77.6" height="77.6" clip-path="url(&quot;#SvgjsClipPath3272&quot;)" x="476.58" y="-33.32" fill="url(#SvgjsPattern3273)" transform="rotate(155.95, 515.38, 5.48)"></rect><path d="M138.51 248.52a5.6 5.6 0 1 0 11.01 2.04 5.6 5.6 0 1 0-11.01-2.04zM154.24 251.44a5.6 5.6 0 1 0 11.01 2.05 5.6 5.6 0 1 0-11.01-2.05zM169.97 254.36a5.6 5.6 0 1 0 11.01 2.05 5.6 5.6 0 1 0-11.01-2.05zM185.7 257.28a5.6 5.6 0 1 0 11.02 2.05 5.6 5.6 0 1 0-11.02-2.05z" stroke="rgba(185, 185, 185, 0.28)" stroke-width="2.92"></path><rect width="88.8" height="88.8" clip-path="url(&quot;#SvgjsClipPath3274&quot;)" x="333.49" y="6.5" fill="url(#SvgjsPattern3275)" transform="rotate(81.95, 377.89, 50.9)"></rect><path d="M308.82 135.96L311.79 123.5 324.59 123.67 327.57 111.21 340.37 111.37 343.34 98.92 356.15 99.08M313.73 142.27L316.7 129.81 329.51 129.98 332.48 117.52 345.29 117.69 348.26 105.23 361.06 105.39M318.65 148.58L321.62 136.12 334.43 136.29 337.4 123.83 350.2 124 353.18 111.54 365.98 111.71" stroke="rgba(185, 185, 185, 0.28)" stroke-width="2.72" stroke-dasharray="4, 4"></path><rect width="60" height="60" clip-path="url(&quot;#SvgjsClipPath3276&quot;)" x="313.59" y="101.54" fill="url(#SvgjsPattern3277)" transform="rotate(33.3, 343.59, 131.54)"></rect><path d="M216.96 72.56L210.82 83.79 198.51 80.27 192.37 91.51 180.06 87.98 173.92 99.22 161.61 95.7M213.88 65.17L207.74 76.41 195.43 72.89 189.29 84.13 176.97 80.6 170.83 91.84 158.52 88.32" stroke="rgba(128, 185, 131, 0.34)" stroke-width="1" stroke-dasharray="2, 2"></path><path d="M496.34-7.05L488.42 3.01 476.86-2.51 468.94 7.55 457.38 2.03 449.46 12.1 437.9 6.58" stroke="rgba(185, 185, 185, 0.28)" stroke-width="2.76" stroke-dasharray="3, 2"></path></g><defs><mask id="SvgjsMask3267"><rect width="798" height="250" fill="#ffffff"></rect></mask><pattern x="0" y="0" width="6" height="6" patternUnits="userSpaceOnUse" id="SvgjsPattern3269"><path d="M0 6L3 0L6 6" stroke="rgba(128, 185, 131, 0.34)" fill="none"></path></pattern><clipPath id="SvgjsClipPath3268"><circle r="30" cx="415.81" cy="235.26"></circle></clipPath><pattern x="0" y="0" width="60" height="6" patternUnits="userSpaceOnUse" id="SvgjsPattern3271"><rect width="60" height="3" x="0" y="0" fill="rgba(128, 185, 131, 0.34)"></rect><rect width="60" height="3" x="0" y="3" fill="rgba(0, 0, 0, 0)"></rect></pattern><clipPath id="SvgjsClipPath3270"><circle r="15" cx="548.4" cy="115.8"></circle></clipPath><pattern x="0" y="0" width="77.6" height="7.76" patternUnits="userSpaceOnUse" id="SvgjsPattern3273"><rect width="77.6" height="3.88" x="0" y="0" fill="rgba(185, 185, 185, 0.28)"></rect><rect width="77.6" height="3.88" x="0" y="3.88" fill="rgba(0, 0, 0, 0)"></rect></pattern><clipPath id="SvgjsClipPath3272"><circle r="19.4" cx="515.38" cy="5.48"></circle></clipPath><pattern x="0" y="0" width="88.8" height="8.88" patternUnits="userSpaceOnUse" id="SvgjsPattern3275"><rect width="88.8" height="4.44" x="0" y="0" fill="rgba(185, 185, 185, 0.28)"></rect><rect width="88.8" height="4.44" x="0" y="4.44" fill="rgba(0, 0, 0, 0)"></rect></pattern><clipPath id="SvgjsClipPath3274"><circle r="22.2" cx="377.89" cy="50.9"></circle></clipPath><pattern x="0" y="0" width="60" height="6" patternUnits="userSpaceOnUse" id="SvgjsPattern3277"><rect width="60" height="3" x="0" y="0" fill="rgba(185, 185, 185, 0.28)"></rect><rect width="60" height="3" x="0" y="3" fill="rgba(0, 0, 0, 0)"></rect></pattern><clipPath id="SvgjsClipPath3276"><circle r="15" cx="343.59" cy="131.54"></circle></clipPath></defs></svg>